<?xml version="1.0" standalone="no"?>
<!DOCTYPE svg PUBLIC "-//W3C//DTD SVG 20010904//EN"
 "http://www.w3.org/TR/2001/REC-SVG-20010904/DTD/svg10.dtd">
<svg version="1.0" xmlns="http://www.w3.org/2000/svg"
 width="189.000000pt" height="189.000000pt" viewBox="0 0 189.000000 189.000000"
 preserveAspectRatio="xMidYMid meet">
<metadata>
Created by potrace 1.11, written by Peter Selinger 2001-2013
</metadata>
<g transform="translate(0.000000,189.000000) scale(0.100000,-0.100000)"
fill="#000000" stroke="none">
<path d="M950 1841 c0 -6 -11 -16 -25 -21 -45 -17 -26 -25 50 -22 55 3 75 7
75 17 0 18 -7 21 -57 30 -29 4 -43 3 -43 -4z"/>
<path d="M830 1790 c0 -5 9 -10 19 -10 11 0 23 5 26 10 4 6 -5 10 -19 10 -14
0 -26 -4 -26 -10z"/>
<path d="M768 1783 c-10 -2 -18 -9 -18 -14 0 -11 39 -2 55 12 9 9 -6 10 -37 2z"/>
<path d="M927 1783 c-9 -2 -15 -8 -12 -13 3 -4 -7 -11 -22 -15 -17 -4 -29 -2
-31 4 -2 6 -8 11 -13 11 -6 0 -7 -5 -4 -10 3 -6 -6 -15 -21 -20 -15 -6 -25
-12 -23 -15 6 -6 112 25 124 36 5 5 28 9 51 9 24 0 46 5 49 10 6 10 -62 12
-98 3z"/>
<path d="M850 1711 c-14 -3 -42 -18 -61 -33 -20 -16 -41 -28 -46 -28 -10 0
-67 -23 -153 -63 -25 -11 -64 -35 -87 -54 -23 -18 -47 -33 -54 -33 -7 0 -10
-3 -6 -6 3 -3 -7 -17 -24 -31 -31 -26 -42 -55 -11 -32 14 12 14 10 -2 -8 -10
-12 -23 -21 -29 -20 -5 1 -25 -18 -43 -43 -19 -25 -41 -52 -49 -61 -8 -9 -15
-23 -15 -31 0 -9 -7 -21 -15 -28 -13 -11 -14 -10 -9 3 3 9 3 21 -1 28 -8 13
-25 -18 -54 -101 -11 -30 -20 -50 -20 -43 -2 26 62 185 69 173 5 -8 10 -8 14
-2 7 11 -21 25 -35 16 -5 -3 -9 1 -9 8 -1 8 -7 5 -17 -7 -15 -20 -15 -20 -9 3
3 12 9 31 12 41 5 16 2 19 -14 14 -14 -3 -28 -26 -46 -75 -14 -38 -26 -78 -26
-88 0 -10 -4 -21 -9 -24 -5 -3 -14 -28 -21 -56 -7 -27 -15 -50 -18 -50 -4 0
-7 -19 -8 -42 -2 -106 -4 -123 -14 -108 -13 20 -13 -89 1 -150 5 -25 11 -57
14 -72 6 -41 48 -141 86 -206 63 -106 310 -335 431 -398 28 -14 119 -19 132
-7 3 4 22 8 40 9 52 2 109 56 130 122 17 53 -86 182 -145 182 -15 0 -30 4 -33
9 -3 5 -20 8 -38 6 -18 -1 -47 6 -66 17 -30 16 -34 17 -28 3 5 -13 0 -12 -23
4 -16 12 -34 21 -41 21 -22 0 -68 40 -91 78 -13 20 -33 47 -45 60 -24 24 -38
62 -23 62 5 0 9 -4 9 -8 0 -14 61 -94 67 -88 3 3 -4 17 -16 32 -38 48 -22 50
21 2 39 -42 118 -89 118 -69 0 4 -20 22 -44 41 -45 33 -68 64 -40 53 17 -6 18
8 1 26 -10 11 -9 12 1 6 11 -6 12 -3 3 14 -7 11 -17 20 -24 18 -14 -2 -63 92
-72 138 -5 28 -5 28 5 6 16 -36 22 -19 11 30 -6 24 -11 64 -12 89 -2 56 -8 82
-18 75 -11 -6 8 97 20 111 5 6 6 14 2 17 -3 4 1 15 9 24 9 10 19 28 23 41 3
12 10 20 15 17 5 -3 25 21 44 54 19 33 52 78 73 100 25 27 38 51 39 71 2 31
-3 31 -41 1 -11 -8 0 6 25 31 52 53 200 134 212 115 6 -10 -56 -55 -97 -70 -5
-3 -7 -8 -3 -12 5 -5 16 -1 25 7 17 15 83 41 83 33 0 -2 -7 -11 -16 -20 -17
-17 -18 -17 61 2 29 7 -59 -44 -144 -84 -98 -45 -186 -133 -235 -236 -20 -41
-36 -85 -36 -99 0 -13 -5 -29 -11 -35 -7 -7 -7 -13 -1 -17 5 -3 20 22 32 57
32 89 72 167 81 161 5 -3 9 -1 9 3 0 5 25 34 55 65 30 31 55 54 55 52 0 -2 28
12 63 31 125 69 192 88 302 89 121 0 201 -21 285 -75 66 -42 82 -57 125 -114
45 -59 60 -90 94 -194 25 -75 29 -96 19 -103 -8 -6 -9 -11 -3 -14 6 -2 8 -28
7 -59 -3 -35 0 -55 7 -55 14 0 14 -37 1 -45 -6 -4 -8 -16 -5 -26 11 -35 -24
-161 -65 -236 -22 -40 -64 -97 -93 -126 -28 -29 -43 -42 -32 -28 11 14 25 30
31 36 42 41 98 142 120 214 14 49 35 201 29 211 -2 4 -5 28 -6 56 -1 27 -8 65
-15 84 -12 32 -13 29 -6 -35 18 -174 -2 -301 -65 -413 -34 -62 -111 -165 -140
-189 -8 -6 -12 -16 -9 -21 3 -6 -1 -13 -10 -16 -9 -4 -14 -9 -11 -13 8 -7 -57
-59 -105 -84 -21 -11 -38 -21 -38 -24 0 -11 51 4 75 23 15 12 35 22 44 22 9 0
-8 -16 -37 -36 -80 -53 -54 -54 33 -1 91 55 91 45 0 -14 -36 -23 -65 -43 -65
-46 0 -4 31 2 68 13 35 10 26 -4 -17 -26 -22 -11 -44 -26 -48 -33 -4 -7 -21
-18 -37 -25 -38 -17 -25 -28 13 -12 16 6 35 9 42 4 8 -4 10 -3 5 4 -9 15 -3
15 27 1 28 -13 55 -1 152 65 33 22 65 40 71 38 6 -1 21 9 34 23 13 14 27 25
32 25 5 0 -7 -13 -25 -30 -19 -16 -40 -30 -47 -30 -7 0 -10 -7 -6 -15 6 -18
-31 -47 -129 -101 -38 -21 -73 -43 -78 -50 -4 -7 -23 -16 -42 -20 -34 -6 -59
-24 -35 -24 57 0 236 69 292 112 20 15 40 28 43 28 13 0 124 95 124 106 1 6
13 21 27 35 38 36 118 160 117 181 -1 10 2 18 7 18 11 0 42 78 47 120 2 19 11
60 20 90 9 32 17 93 17 145 1 105 -7 265 -13 259 -3 -2 -15 32 -28 76 -26 92
-68 180 -124 260 -50 73 -114 140 -134 140 -8 0 -15 5 -15 10 0 6 -5 10 -11
10 -6 0 -8 -7 -5 -16 4 -10 1 -14 -6 -12 -7 3 -15 13 -16 24 -4 20 -29 44 -45
44 -6 0 0 -9 13 -20 38 -33 18 -31 -55 5 -38 19 -71 35 -73 35 -14 0 28 -35
62 -52 46 -23 149 -126 173 -173 13 -24 6 -20 -38 23 -111 109 -256 188 -408
222 -88 19 -208 25 -261 11z m313 -68 c27 -8 46 -17 44 -19 -2 -3 -16 0 -31 6
-15 5 -40 10 -56 10 -15 0 -41 7 -56 16 l-29 16 40 -7 c22 -3 62 -13 88 -22z
m158 -63 c24 -16 55 -39 69 -51 l25 -21 -28 16 c-15 10 -51 31 -80 48 -62 36
-64 38 -45 38 8 0 34 -13 59 -30z m-987 -267 c-38 -73 -64 -108 -43 -58 15 35
69 125 74 125 2 0 -12 -30 -31 -67z m-267 -545 c-3 -8 -6 -5 -6 6 -1 11 2 17
5 13 3 -3 4 -12 1 -19z m20 -70 c-3 -8 -6 -5 -6 6 -1 11 2 17 5 13 3 -3 4 -12
1 -19z m1253 -402 c0 -2 -8 -10 -17 -17 -16 -13 -17 -12 -4 4 13 16 21 21 21
13z m-20 -91 c0 -2 -10 -9 -22 -15 -22 -11 -22 -10 -4 4 21 17 26 19 26 11z
m-64 -40 c-11 -8 -25 -15 -30 -15 -6 1 0 7 14 15 32 19 40 18 16 0z m134 -20
c0 -2 -10 -10 -22 -16 -21 -11 -22 -11 -9 4 13 16 31 23 31 12z m-80 -45 c-19
-11 -39 -19 -45 -19 -5 0 6 8 25 19 19 11 40 19 45 19 6 0 -6 -8 -25 -19z"/>
<path d="M520 1661 c-64 -39 -216 -181 -193 -181 6 0 45 32 85 70 40 39 99 87
131 107 31 20 57 37 57 39 0 10 -20 1 -80 -35z"/>
<path d="M365 1599 c-5 -5 -21 -18 -35 -28 -20 -15 -22 -22 -13 -32 10 -10 15
-9 28 1 8 7 15 17 15 23 0 6 7 19 17 29 16 18 6 25 -12 7z"/>
<path d="M485 1575 c-38 -32 -29 -40 10 -10 16 13 27 27 24 30 -3 3 -19 -6
-34 -20z"/>
<path d="M595 1520 c-3 -5 -1 -10 4 -10 6 0 11 5 11 10 0 6 -2 10 -4 10 -3 0
-8 -4 -11 -10z"/>
<path d="M700 1520 c-8 -5 -11 -12 -7 -16 4 -4 15 0 24 9 18 18 8 23 -17 7z"/>
<path d="M382 1480 c-7 -11 -8 -20 -2 -20 5 0 14 9 20 20 6 11 7 20 3 20 -5 0
-14 -9 -21 -20z"/>
<path d="M293 1438 c-18 -24 -24 -38 -16 -38 10 0 36 40 30 46 -2 3 -9 -1 -14
-8z"/>
<path d="M1426 1235 c4 -8 10 -15 15 -15 4 0 6 7 3 15 -4 8 -10 15 -15 15 -4
0 -6 -7 -3 -15z"/>
<path d="M1445 1190 c3 -5 8 -10 11 -10 2 0 4 5 4 10 0 6 -5 10 -11 10 -5 0
-7 -4 -4 -10z"/>
<path d="M1460 1160 c0 -8 5 -22 10 -30 9 -13 10 -13 10 0 0 8 -5 22 -10 30
-9 13 -10 13 -10 0z"/>
<path d="M490 602 c0 -12 19 -26 26 -19 2 2 -2 10 -11 17 -9 8 -15 8 -15 2z"/>
<path d="M465 520 c3 -5 8 -10 11 -10 2 0 4 5 4 10 0 6 -5 10 -11 10 -5 0 -7
-4 -4 -10z"/>
<path d="M1195 353 c-27 -23 -32 -31 -15 -22 26 12 65 48 59 54 -2 2 -22 -13
-44 -32z"/>
<path d="M1055 180 c-3 -5 -2 -10 4 -10 5 0 13 5 16 10 3 6 2 10 -4 10 -5 0
-13 -4 -16 -10z"/>
</g>
</svg>
